<svg xmlns="http://www.w3.org/2000/svg" width="512" height="512" viewBox="0 0 512 512">
  <defs>
    <linearGradient id="bg" x1="0%" y1="0%" x2="100%" y2="100%">
      <stop offset="0%" style="stop-color:#0f172a"/>
      <stop offset="100%" style="stop-color:#1e293b"/>
    </linearGradient>
    <linearGradient id="whale" x1="0%" y1="0%" x2="100%" y2="100%">
      <stop offset="0%" style="stop-color:#3b82f6"/>
      <stop offset="100%" style="stop-color:#8b5cf6"/>
    </linearGradient>
  </defs>
  <!-- Background -->
  <rect width="512" height="512" rx="80" fill="url(#bg)"/>
  <!-- Whale icon -->
  <g transform="translate(80, 120)">
    <!-- Body -->
    <ellipse cx="176" cy="128" rx="152" ry="96" fill="url(#whale)"/>
    <!-- Tail -->
    <path d="M24 128 Q-20 80 24 40 Q68 80 24 128" fill="url(#whale)"/>
    <!-- Eye -->
    <circle cx="272" cy="108" r="16" fill="#0f172a"/>
    <circle cx="278" cy="102" r="5" fill="#fff"/>
    <!-- Water spout -->
    <path d="M216 32 Q224 0 232 32 M200 20 Q212 -16 224 20 M224 20 Q236 -16 248 20" 
          stroke="#60a5fa" stroke-width="8" fill="none" stroke-linecap="round"/>
  </g>
  <!-- Chart bars -->
  <g transform="translate(100, 340)">
    <rect x="0" y="56" width="44" height="64" rx="6" fill="#22c55e" opacity="0.8"/>
    <rect x="64" y="32" width="44" height="88" rx="6" fill="#22c55e" opacity="0.9"/>
    <rect x="128" y="8" width="44" height="112" rx="6" fill="#22c55e"/>
    <rect x="192" y="44" width="44" height="76" rx="6" fill="#ef4444" opacity="0.9"/>
    <rect x="256" y="20" width="44" height="100" rx="6" fill="#22c55e" opacity="0.85"/>
  </g>
</svg>
